<svg enable-background="new 0 0 32 32" viewBox="0 0 32 32" xmlns="http://www.w3.org/2000/svg"><path d="m15 28c-1.7 0-3-1.3-3-3v-5c0-1.7 1.3-3 3-3h8c1.7 0 3 1.3 3 3v5c0 1.7-1.3 3-3 3z" fill="#65b1dd"/><path d="m23 18c1.1 0 2 .9 2 2v5c0 1.1-.9 2-2 2h-8c-1.1 0-2-.9-2-2v-5c0-1.1.9-2 2-2zm0-2h-8c-2.2 0-4 1.8-4 4v5c0 2.2 1.8 4 4 4h8c2.2 0 4-1.8 4-4v-5c0-2.2-1.8-4-4-4z" fill="#fff"/><path d="m4 30c-1.7 0-3-1.3-3-3v-7c0-1.7 1.3-3 3-3h10c1.7 0 3 1.3 3 3v7c0 1.7-1.3 3-3 3z" fill="#336697"/><path d="m14 18c1.1 0 2 .9 2 2v7c0 1.1-.9 2-2 2h-10c-1.1 0-2-.9-2-2v-7c0-1.1.9-2 2-2zm0-2h-10c-2.2 0-4 1.8-4 4v7c0 2.2 1.8 4 4 4h10c2.2 0 4-1.8 4-4v-7c0-2.2-1.8-4-4-4z" fill="#fff"/><path d="m12 21c-1.7 0-3-1.3-3-3v-12c0-1.7 1.3-3 3-3h16c1.7 0 3 1.3 3 3v12c0 1.7-1.3 3-3 3z" fill="#1d4775"/><path d="m28 4c1.1 0 2 .9 2 2v12c0 1.1-.9 2-2 2h-16c-1.1 0-2-.9-2-2v-12c0-1.1.9-2 2-2zm0-2h-16c-2.2 0-4 1.8-4 4v12c0 2.2 1.8 4 4 4h16c2.2 0 4-1.8 4-4v-12c0-2.2-1.8-4-4-4z" fill="#fff"/></svg>